<svg xmlns="http://www.w3.org/2000/svg" width="256" height="256" viewBox="0 0 256 256">
  <g id="settings_big" transform="translate(-585 -433)">
    <rect id="safe_area" data-name="safe area" width="256" height="256" transform="translate(585 433)" fill="#8aa1b1" opacity="0"/>
    <g id="icon" transform="translate(653.517 501.517)">
      <path id="Path_47" data-name="Path 47" d="M113.822,46.667H102.6a4.31,4.31,0,0,1-3.049-7.358l7.938-7.936a6.183,6.183,0,0,0,0-8.74L97.367,12.516a6.327,6.327,0,0,0-8.74,0l-7.936,7.936A4.309,4.309,0,0,1,73.333,17.4V6.178A6.184,6.184,0,0,0,67.156,0H52.844a6.184,6.184,0,0,0-6.178,6.178V17.4a4.309,4.309,0,0,1-7.358,3.047l-7.936-7.936a6.327,6.327,0,0,0-8.74,0L12.516,22.633a6.183,6.183,0,0,0,0,8.74l7.938,7.936A4.31,4.31,0,0,1,17.4,46.667H6.178A6.184,6.184,0,0,0,0,52.844V67.153a6.185,6.185,0,0,0,6.178,6.18H17.4a4.31,4.31,0,0,1,3.049,7.358l-7.938,7.936a6.183,6.183,0,0,0,0,8.74l10.118,10.118a6.323,6.323,0,0,0,8.74,0l7.936-7.938a4.31,4.31,0,0,1,7.358,3.049v11.227A6.184,6.184,0,0,0,52.844,120H67.153a6.184,6.184,0,0,0,6.178-6.178V102.6a4.31,4.31,0,0,1,7.358-3.049l7.936,7.938a6.327,6.327,0,0,0,8.74,0l10.118-10.118a6.183,6.183,0,0,0,0-8.74l-7.938-7.936a4.31,4.31,0,0,1,3.051-7.358h11.227A6.184,6.184,0,0,0,120,67.156V52.844A6.184,6.184,0,0,0,113.822,46.667Zm1.733,20.489a1.736,1.736,0,0,1-1.733,1.733H102.6A8.756,8.756,0,0,0,96.4,83.836l7.938,7.936a1.734,1.734,0,0,1,0,2.453L94.224,104.342a1.734,1.734,0,0,1-2.453,0L83.836,96.4A8.756,8.756,0,0,0,68.889,102.6v11.227a1.736,1.736,0,0,1-1.733,1.733H52.844a1.736,1.736,0,0,1-1.733-1.733V102.6a8.619,8.619,0,0,0-5.4-8.089,8.856,8.856,0,0,0-3.407-.691A8.633,8.633,0,0,0,36.164,96.4l-7.936,7.938a1.734,1.734,0,0,1-2.453,0L15.658,94.222a1.734,1.734,0,0,1,0-2.453L23.6,83.833A8.754,8.754,0,0,0,17.4,68.889H6.178a1.736,1.736,0,0,1-1.733-1.733V52.844a1.736,1.736,0,0,1,1.733-1.733H17.4A8.756,8.756,0,0,0,23.6,36.164l-7.938-7.936a1.734,1.734,0,0,1,0-2.453L25.776,15.658a1.734,1.734,0,0,1,2.453,0l7.936,7.936A8.756,8.756,0,0,0,51.111,17.4V6.178a1.736,1.736,0,0,1,1.733-1.733H67.153a1.736,1.736,0,0,1,1.736,1.733V17.4A8.756,8.756,0,0,0,83.836,23.6l7.936-7.936a1.734,1.734,0,0,1,2.453,0l10.118,10.118a1.734,1.734,0,0,1,0,2.453L96.4,36.167A8.756,8.756,0,0,0,102.6,51.113h11.227a1.732,1.732,0,0,1,1.733,1.731Z" transform="translate(0 0)" fill="#8aa1b1"/>
      <path id="Path_48" data-name="Path 48" d="M37.828,18A19.828,19.828,0,1,0,57.656,37.828,19.849,19.849,0,0,0,37.828,18Zm0,35.249A15.422,15.422,0,1,1,53.249,37.828,15.441,15.441,0,0,1,37.828,53.249Z" transform="translate(22.172 22.172)" fill="#8aa1b1"/>
    </g>
  </g>
</svg>
