<svg xmlns="http://www.w3.org/2000/svg" width="256" height="256" viewBox="0 0 256 256">
  <g id="widget_icon" data-name="widget icon" transform="translate(-1398 -433)">
    <rect id="safe_area" data-name="safe area" width="256" height="256" transform="translate(1398 433)" fill="#f2f1ef" opacity="0"/>
    <g id="_004-app" data-name="004-app" transform="translate(1466 501)">
      <path id="Path_49" data-name="Path 49" d="M48.073,0H7.086A7.093,7.093,0,0,0,0,7.086V48.073a7.093,7.093,0,0,0,7.086,7.086H48.073a7.093,7.093,0,0,0,7.086-7.086V7.086A7.093,7.093,0,0,0,48.073,0Zm2.843,48.073a2.846,2.846,0,0,1-2.843,2.843H7.086a2.846,2.846,0,0,1-2.843-2.843V7.086A2.846,2.846,0,0,1,7.086,4.243H48.073a2.846,2.846,0,0,1,2.843,2.843Z" fill="#8aa1b1"/>
      <path id="Path_50" data-name="Path 50" d="M78.073,0H37.086A7.093,7.093,0,0,0,30,7.086V48.073a7.093,7.093,0,0,0,7.086,7.086H78.073a7.093,7.093,0,0,0,7.086-7.086V7.086A7.093,7.093,0,0,0,78.073,0Zm2.843,48.073a2.846,2.846,0,0,1-2.843,2.843H37.086a2.846,2.846,0,0,1-2.843-2.843V7.086a2.846,2.846,0,0,1,2.843-2.843H78.073a2.846,2.846,0,0,1,2.843,2.843Z" transform="translate(34.842)" fill="#8aa1b1"/>
      <path id="Path_51" data-name="Path 51" d="M48.073,30H7.086A7.093,7.093,0,0,0,0,37.086V78.073a7.093,7.093,0,0,0,7.086,7.086H48.073a7.093,7.093,0,0,0,7.086-7.086V37.086A7.093,7.093,0,0,0,48.073,30Zm2.843,48.073a2.846,2.846,0,0,1-2.843,2.843H7.086a2.846,2.846,0,0,1-2.843-2.843V37.086a2.846,2.846,0,0,1,2.843-2.843H48.073a2.846,2.846,0,0,1,2.843,2.843Z" transform="translate(0 34.842)" fill="#8aa1b1"/>
      <path id="Path_52" data-name="Path 52" d="M83.037,55.458H59.7V32.121a2.121,2.121,0,0,0-4.243,0V55.458H32.121a2.121,2.121,0,1,0,0,4.243H55.458V83.037a2.121,2.121,0,1,0,4.243,0V59.7H83.037a2.121,2.121,0,0,0,0-4.243Z" transform="translate(34.842 34.842)" fill="#8aa1b1"/>
    </g>
  </g>
</svg>
