<?xml version="1.0" encoding="utf-8"?>
<svg width="19px" height="13px" viewBox="0 0 19 13" version="1.1" xmlns:xlink="http://www.w3.org/1999/xlink" xmlns="http://www.w3.org/2000/svg">
  <desc>Created with Lunacy</desc>
  <path d="M9.5 0C5.18182 0 1.49409 2.69533 0 6.5C1.49409 10.3047 5.18182 13 9.5 13C13.8182 13 17.5059 10.3047 19 6.5C17.5059 2.69533 13.8182 0 9.5 0L9.5 0ZM9.5 10.8333C7.11636 10.8333 5.18182 8.892 5.18182 6.5C5.18182 4.108 7.11636 2.16667 9.5 2.16667C11.8836 2.16667 13.8182 4.108 13.8182 6.5C13.8182 8.892 11.8836 10.8333 9.5 10.8333L9.5 10.8333ZM9.5 3.9C8.06636 3.9 6.90909 5.06133 6.90909 6.5C6.90909 7.93867 8.06636 9.1 9.5 9.1C10.9336 9.1 12.0909 7.93867 12.0909 6.5C12.0909 5.06133 10.9336 3.9 9.5 3.9L9.5 3.9Z" id="Icon" fill="#959BA1" stroke="none" />
</svg>