<svg xmlns="http://www.w3.org/2000/svg" viewBox="0 0 36 36">
  <defs>
    <style>
      .cls-1 {
        fill: #f2f1ef;
        opacity: 0;
      }

      .cls-2 {
        fill: #8aa1b1;
      }
    </style>
  </defs>
  <g id="add" transform="translate(-40 -162)">
    <rect id="safe_area" data-name="safe area" class="cls-1" width="36" height="36" transform="translate(40 162)"/>
    <g id="icon" transform="translate(46 168)">
      <path id="Path_23" data-name="Path 23" class="cls-2" d="M12,0A12,12,0,1,0,24,12,12.034,12.034,0,0,0,12,0Zm0,22.362A10.363,10.363,0,1,1,22.362,12,10.358,10.358,0,0,1,12,22.362Z"/>
      <path id="Path_24" data-name="Path 24" class="cls-2" d="M22.5,17.591H19.227V14.318a.818.818,0,1,0-1.636,0v3.272H14.318a.818.818,0,1,0,0,1.636h3.272V22.5a.818.818,0,0,0,1.636,0V19.227H22.5a.818.818,0,0,0,0-1.636Z" transform="translate(-6.137 -6.137)"/>
    </g>
  </g>
</svg>
