<svg xmlns="http://www.w3.org/2000/svg" width="36" height="36" viewBox="0 0 36 36">
  <g id="connections_default" transform="translate(-40 -162)">
    <rect id="safe_area" data-name="safe area" width="36" height="36" transform="translate(40 162)" fill="#f2f1ef" opacity="0"/>
    <g id="icon">
      <path id="Path_16" data-name="Path 16" d="M18.971,12.209,16.421,9.66a3.551,3.551,0,0,0-5.049.049L10.294,8.63a3.447,3.447,0,0,0,1.078-2.561,3.384,3.384,0,0,0-1.017-2.488L7.831,1.045A3.358,3.358,0,0,0,5.331,0,3.384,3.384,0,0,0,2.843,1.02l-1.8,1.789A3.344,3.344,0,0,0,0,5.3,3.4,3.4,0,0,0,1.029,7.8l2.549,2.549a3.4,3.4,0,0,0,2.5,1.029A3.433,3.433,0,0,0,8.627,10.3l1.078,1.078a3.447,3.447,0,0,0-1.078,2.561,3.384,3.384,0,0,0,1.017,2.488l2.525,2.537a3.535,3.535,0,0,0,4.988.025l1.8-1.789A3.344,3.344,0,0,0,20,14.709,3.405,3.405,0,0,0,18.971,12.209ZM8.628,6.964,8.4,6.731q-.19-.2-.263-.264A2.964,2.964,0,0,0,7.9,6.284a.988.988,0,0,0-.312-.159,1.249,1.249,0,0,0-.337-.043A1.171,1.171,0,0,0,6.079,7.258a1.248,1.248,0,0,0,.043.337.984.984,0,0,0,.159.313,2.948,2.948,0,0,0,.184.233q.067.073.263.264l.233.227a1.185,1.185,0,0,1-.882.38,1.13,1.13,0,0,1-.833-.331L2.7,6.131A1.135,1.135,0,0,1,2.353,5.3,1.12,1.12,0,0,1,2.7,4.476L4.5,2.687a1.184,1.184,0,0,1,.833-.331,1.135,1.135,0,0,1,.833.343L8.689,5.236a1.134,1.134,0,0,1,.343.833A1.19,1.19,0,0,1,8.628,6.964ZM17.3,15.53l-1.8,1.789a1.181,1.181,0,0,1-.833.319,1.129,1.129,0,0,1-.833-.331L11.312,14.77a1.134,1.134,0,0,1-.343-.833,1.189,1.189,0,0,1,.4-.895l.227.233q.19.2.264.264a2.909,2.909,0,0,0,.233.184.982.982,0,0,0,.313.159,1.247,1.247,0,0,0,.337.043,1.172,1.172,0,0,0,1.177-1.176,1.256,1.256,0,0,0-.043-.337.98.98,0,0,0-.16-.313,2.959,2.959,0,0,0-.184-.233q-.067-.073-.264-.264l-.233-.226a1.168,1.168,0,0,1,.882-.392,1.133,1.133,0,0,1,.833.343L17.3,13.876a1.135,1.135,0,0,1,.343.833A1.12,1.12,0,0,1,17.3,15.53Z" transform="translate(48 169.997)" fill="#8aa1b1"/>
    </g>
  </g>
</svg>
