<svg xmlns="http://www.w3.org/2000/svg" width="24" height="24" viewBox="0 0 24 24">
  <g id="date_end" transform="translate(-1140 -215)">
    <rect id="safearea" width="24" height="24" transform="translate(1140 215)" fill="#f2f1ef" opacity="0"/>
    <g id="icon" transform="translate(1119.5 219)">
      <path id="Path_32" data-name="Path 32" d="M38.3,1.6h-.8V0H35.9V1.6H29.5V0H27.9V1.6h-.8a1.6,1.6,0,0,0-1.6,1.6V14.4A1.6,1.6,0,0,0,27.1,16H38.3a1.6,1.6,0,0,0,1.6-1.6V3.2A1.6,1.6,0,0,0,38.3,1.6Zm0,12.8H27.1V5.6H38.3Z" fill="#8aa1b1"/>
      <rect id="Rectangle_57" data-name="Rectangle 57" width="4.267" height="4.267" transform="translate(32.617 9.039)" fill="#8aa1b1"/>
    </g>
  </g>
</svg>
