<svg xmlns="http://www.w3.org/2000/svg" width="31" height="31" viewBox="0 0 31 31">
  <g id="desktop_default" transform="translate(-1072 -198)">
    <rect id="safearea" width="31" height="31" transform="translate(1072 198)" fill="#f2f1ef" opacity="0"/>
    <g id="icon" transform="translate(1080 170.457)">
      <path id="Path_41" data-name="Path 41" d="M15.608,36.935a1.284,1.284,0,0,0-.942-.392H1.333a1.284,1.284,0,0,0-.942.392A1.284,1.284,0,0,0,0,37.876v9.067a1.284,1.284,0,0,0,.392.942,1.284,1.284,0,0,0,.942.392H5.867a1.743,1.743,0,0,1-.133.65,5.9,5.9,0,0,1-.267.583.921.921,0,0,0-.133.367.541.541,0,0,0,.533.534h4.267a.541.541,0,0,0,.533-.534.953.953,0,0,0-.133-.362,6.113,6.113,0,0,1-.267-.592,1.756,1.756,0,0,1-.133-.646h4.533A1.337,1.337,0,0,0,16,46.943V37.876A1.283,1.283,0,0,0,15.608,36.935Zm-.675,7.875a.27.27,0,0,1-.267.267H1.333a.27.27,0,0,1-.267-.267V37.876a.27.27,0,0,1,.267-.267H14.667a.27.27,0,0,1,.267.267V44.81Z" fill="#8aa1b1"/>
    </g>
  </g>
</svg>
