<svg version="1.1" id="Capa_1" xmlns="http://www.w3.org/2000/svg" width="36" height="30" x="0px" y="0px"
	 viewBox="0 0 512.003 512.003">
<g>
	<g>
		<g>
			<path d="M160.001,272.003c0-35.346-28.654-64-64-64s-64,28.654-64,64c0,35.346,28.654,64,64,64S160.001,307.349,160.001,272.003z
				 M96.001,304.003c-17.673,0-32-14.327-32-32s14.327-32,32-32s32,14.327,32,32S113.675,304.003,96.001,304.003z"/>
			<path d="M0.001,464.003v48h32v-48c-0.025-8.553,1.684-17.022,5.024-24.896L7.569,426.611
				C2.549,438.436-0.025,451.156,0.001,464.003z"/>
			<path d="M97.857,400.003c13.483,0.34,26.503,4.988,37.152,13.264l19.584-25.312c-16.013-12.429-35.577-19.419-55.84-19.952
				L97.857,400.003z"/>
			<path d="M29.105,395.203l22.304,22.944c6.137-5.977,13.411-10.662,21.392-13.776l-11.632-29.808
				C49.204,379.219,38.299,386.239,29.105,395.203z"/>
			<path d="M504.433,426.611l-29.456,12.496c3.34,7.874,5.049,16.343,5.024,24.896v48h32v-48
				C512.028,451.156,509.454,438.436,504.433,426.611z"/>
			<path d="M450.833,374.531l-11.632,29.808c7.981,3.114,15.255,7.799,21.392,13.776l22.304-22.912
				C473.707,386.228,462.802,379.197,450.833,374.531z"/>
			<path d="M357.409,387.987l19.6,25.312c10.638-8.289,23.654-12.949,37.136-13.296l-0.896-32
				C392.982,368.545,373.418,375.547,357.409,387.987z"/>
			<path d="M192.001,272.003c0,35.346,28.654,64,64,64c35.346,0,64-28.654,64-64c0-35.346-28.654-64-64-64
				C220.655,208.003,192.001,236.657,192.001,272.003z M288.001,272.003c0,17.673-14.327,32-32,32c-17.673,0-32-14.327-32-32
				s14.327-32,32-32C273.675,240.003,288.001,254.33,288.001,272.003z"/>
			<path d="M256.001,368.003c-52.997,0.053-95.947,43.003-96,96v48h32v-48c0-35.346,28.654-64,64-64c35.346,0,64,28.654,64,64v48h32
				v-48C351.948,411.005,308.999,368.056,256.001,368.003z"/>
			<path d="M480.001,272.003c0-35.346-28.654-64-64-64c-35.346,0-64,28.654-64,64c0,35.346,28.654,64,64,64
				C451.348,336.003,480.001,307.349,480.001,272.003z M416.001,304.003c-17.673,0-32-14.327-32-32s14.327-32,32-32
				c17.673,0,32,14.327,32,32S433.675,304.003,416.001,304.003z"/>
			<path d="M256.001,184.915l77.584-77.6c24.545-24.555,24.536-64.358-0.019-88.903c-20.639-20.631-52.762-24.345-77.565-8.969
				c-29.508-18.293-68.26-9.202-86.553,20.307c-15.376,24.803-11.662,56.926,8.969,77.565L256.001,184.915z M201.041,41.027
				c12.071-12.009,31.577-12.009,43.648,0l11.312,11.312l11.312-11.312c12.057-12.053,31.603-12.049,43.656,0.008
				c12.053,12.057,12.049,31.603-0.008,43.656l-54.96,54.976l-54.96-54.976C188.987,72.632,188.987,53.085,201.041,41.027z"/>
		</g>
	</g>
</g>
<g>
</g>
<g>
</g>
<g>
</g>
<g>
</g>
<g>
</g>
<g>
</g>
<g>
</g>
<g>
</g>
<g>
</g>
<g>
</g>
<g>
</g>
<g>
</g>
<g>
</g>
<g>
</g>
<g>
</g>
</svg>
