<svg xmlns="http://www.w3.org/2000/svg" width="24" height="24" viewBox="0 0 24 24">
  <g id="duplicate_24px" transform="translate(-1736 -136)">
    <rect id="safe_area" data-name="safe area" width="24" height="24" transform="translate(1736 136)" fill="#f2f1ef" opacity="0"/>
    <g id="icon" transform="translate(1742 140)">
      <path id="Path_36" data-name="Path 36" d="M123.653,3.813a.486.486,0,0,1-.486-.486V0h-4.059a.487.487,0,0,0-.487.487V2.734h1.325a.489.489,0,0,1,.344.143L124.1,6.69a.49.49,0,0,1,.143.344V13.06h2.247a.487.487,0,0,0,.487-.487V3.813Zm0,0" transform="translate(-114.914)" fill="#8aa1b1"/>
      <path id="Path_37" data-name="Path 37" d="M295.223,22.016v2.152h2.152Zm0,0" transform="translate(-285.997 -21.328)" fill="#8aa1b1"/>
      <path id="Path_38" data-name="Path 38" d="M4.545,121.948v-3.327H.487a.487.487,0,0,0-.487.487v11.32a.486.486,0,0,0,.487.487H7.872a.487.487,0,0,0,.487-.487v-7.994H5.032A.486.486,0,0,1,4.545,121.948Zm0,0" transform="translate(0 -114.914)" fill="#8aa1b1"/>
      <path id="Path_39" data-name="Path 39" d="M176.59,142.8h2.152l-2.152-2.152Zm0,0" transform="translate(-171.071 -136.253)" fill="#8aa1b1"/>
    </g>
  </g>
</svg>
