<svg xmlns="http://www.w3.org/2000/svg" width="36" height="36" viewBox="0 0 36 36">
  <g id="faq" transform="translate(-142 -1022)">
    <rect id="safe_area" data-name="safe area" width="36" height="36" transform="translate(142 1022)" fill="#f2f1ef" opacity="0"/>
    <g id="icon">
      <path id="_003-question" data-name="003-question" d="M10,0A10,10,0,1,0,20,10,10.011,10.011,0,0,0,10,0Zm.769,15.769a.769.769,0,1,1-1.538,0V15a.769.769,0,1,1,1.538,0Zm1.105-6.32a2.555,2.555,0,0,0-1.105,2.15v1.093a.769.769,0,1,1-1.538,0V11.6a4.05,4.05,0,0,1,1.81-3.443,1.915,1.915,0,0,0,.882-1.645,1.959,1.959,0,0,0-1.9-1.9,1.829,1.829,0,0,0-1.378.553,1.911,1.911,0,0,0-.573,1.37.769.769,0,0,1-1.538,0A3.462,3.462,0,0,1,10,3.077h.05a3.485,3.485,0,0,1,3.412,3.412A3.444,3.444,0,0,1,11.875,9.449Z" transform="translate(150 1030)" fill="#fff"/>
    </g>
  </g>
</svg>
