<svg xmlns="http://www.w3.org/2000/svg" width="36" height="36" viewBox="0 0 36 36">
  <g id="Global" transform="translate(-1488 -17)">
    <rect id="safe_area" data-name="safe area" width="36" height="36" transform="translate(1488 17)" fill="#f2f1ef" opacity="0"/>
    <g id="icon" transform="translate(1497 26)">
      <path id="Path_44" data-name="Path 44" d="M22.51,5.346l-.269.085-1.434.128-.405.647-.294-.093L18.965,5.083,18.8,4.548l-.222-.571-.717-.644-.846-.166-.019.387.829.809.406.478-.456.238L17.4,4.971l-.556-.232.019-.449-.73-.3-.242,1.055-.736.167.073.589.959.185.166-.94.791.117.368.215h.59l.4.809,1.071,1.087L19.5,7.7l-.864-.11-1.492.754L16.069,9.628l-.14.571h-.386l-.719-.331-.7.331.174.736.3-.35.534-.017-.037.661.442.13.442.5.721-.2.824.13.957.257.478.056.81.92,1.564.92-1.011,1.932-1.068.5-.405,1.1L17.311,18.5l-.164.595A8.99,8.99,0,0,0,22.51,5.346Z" transform="translate(-6.034 -1.353)" fill="#fff"/>
      <path id="Path_45" data-name="Path 45" d="M10.039,16.922l-.656-1.215.6-1.254-.6-.18-.676-.679-1.5-.336-.5-1.04v.617H6.5l-1.29-1.749V9.65L4.26,8.113l-1.5.268H1.747l-.509-.334.649-.515-.648.15A8.989,8.989,0,0,0,9,21.219a9.423,9.423,0,0,0,1.13-.079l-.094-1.091s.413-1.619.413-1.674S10.039,16.922,10.039,16.922Z" transform="translate(-0.004 -3.216)" fill="#fff"/>
      <path id="Path_46" data-name="Path 46" d="M4.882,2.9l1.6-.223.737-.4.829.239,1.325-.073.454-.713.662.109L12.1,1.686l.443-.488.625-.417.884.133.322-.049A8.972,8.972,0,0,0,3.6,3.273h0ZM10.917.9l.919-.506.59.341-.854.65-.816.082-.367-.238ZM8.195.969l.406.169L9.132.969l.289.5-1.226.322-.59-.345S8.182,1.076,8.195.969Z" transform="translate(-1.538)" fill="#fff"/>
    </g>
  </g>
</svg>
