<svg xmlns="http://www.w3.org/2000/svg" width="20.001" height="20.998" viewBox="0 0 20.001 20.998">
  <g id="margin_bot" transform="translate(-1140 -355)">
    <g id="margin_bot-2" data-name="margin_bot" transform="translate(2302 729.999) rotate(180)">
      <path id="Union_9" data-name="Union 9" d="M-15882,1264h-1v-18h1v17h16v-17h1v18Z" transform="translate(17026 -889)" fill="#d8dfe5"/>
      <rect id="Rectangle_115" data-name="Rectangle 115" width="18" height="2" transform="translate(1143 357)" fill="#f6565d"/>
      <path id="Union_6" data-name="Union 6" d="M-15870,1105a1,1,0,0,1,1-1,1,1,0,0,1,1,1,1,1,0,0,1-1,1A1,1,0,0,1-15870,1105Zm-3,0a1,1,0,0,1,1-1,1,1,0,0,1,1,1,1,1,0,0,1-1,1A1,1,0,0,1-15873,1105Zm-3,0a1,1,0,0,1,1-1,1,1,0,0,1,1,1,1,1,0,0,1-1,1A1,1,0,0,1-15876,1105Zm-3,0a1,1,0,0,1,1-1,1,1,0,0,1,1,1,1,1,0,0,1-1,1A1,1,0,0,1-15879,1105Zm-3,0a1,1,0,0,1,1-1,1,1,0,0,1,1,1,1,1,0,0,1-1,1A1,1,0,0,1-15882,1105Zm-3,0a1,1,0,0,1,1-1,1,1,0,0,1,1,1,1,1,0,0,1-1,1A1,1,0,0,1-15885,1105Zm-3,0a1,1,0,0,1,1-1,1,1,0,0,1,1,1,1,1,0,0,1-1,1A1,1,0,0,1-15888,1105Z" transform="translate(17030 -750)" fill="#f6565d"/>
    </g>
  </g>
</svg>
