<svg xmlns="http://www.w3.org/2000/svg" width="32" height="32" viewBox="0 0 32 32">
  <g id="mobile_default" transform="translate(-1139 -198)">
    <rect id="safearea" width="32" height="32" transform="translate(1139 198)" fill="#f2f1ef" opacity="0"/>
    <g id="icon" transform="translate(1076.91 206)">
      <path id="Path_42" data-name="Path 42" d="M82.215.475A1.537,1.537,0,0,0,81.09,0h-6.4a1.538,1.538,0,0,0-1.125.475A1.537,1.537,0,0,0,73.09,1.6V14.4a1.623,1.623,0,0,0,1.6,1.6h6.4a1.623,1.623,0,0,0,1.6-1.6V1.6A1.537,1.537,0,0,0,82.215.475ZM76.89,1.6h2a.177.177,0,0,1,.2.2.177.177,0,0,1-.2.2h-2a.177.177,0,0,1-.2-.2A.177.177,0,0,1,76.89,1.6ZM78.6,15.106a1,1,0,1,1,.294-.706A.964.964,0,0,1,78.6,15.106ZM81.49,12.4a.405.405,0,0,1-.4.4h-6.4a.405.405,0,0,1-.4-.4V3.6a.406.406,0,0,1,.4-.4h6.4a.406.406,0,0,1,.4.4v8.8h0Z" fill="#8aa1b1"/>
    </g>
  </g>
</svg>
