<svg xmlns="http://www.w3.org/2000/svg" width="24.002" height="24" viewBox="0 0 24.002 24">
  <g id="padding_right" transform="translate(-1140 -354)">
    <g id="padding_right-2" data-name="padding_right" transform="translate(1394.002 -796) rotate(90)">
      <rect id="Rectangle_119" data-name="Rectangle 119" width="24" height="1" transform="translate(1174 230.002) rotate(90)" fill="#d8dfe5"/>
      <rect id="Rectangle_120" data-name="Rectangle 120" width="24" height="1" transform="translate(1174 254.002) rotate(180)" fill="#d8dfe5"/>
      <rect id="Rectangle_121" data-name="Rectangle 121" width="24" height="1" transform="translate(1151 230.002) rotate(90)" fill="#d8dfe5"/>
      <rect id="Rectangle_115" data-name="Rectangle 115" width="24" height="2" transform="translate(1150 230)" fill="#2eceae"/>
      <path id="Union_6" data-name="Union 6" d="M-15870,1108a1,1,0,0,1,1-1,1,1,0,0,1,1,1,1,1,0,0,1-1,1A1,1,0,0,1-15870,1108Zm-3,0a1,1,0,0,1,1-1,1,1,0,0,1,1,1,1,1,0,0,1-1,1A1,1,0,0,1-15873,1108Zm-3,0a1,1,0,0,1,1-1,1,1,0,0,1,1,1,1,1,0,0,1-1,1A1,1,0,0,1-15876,1108Zm-3,0a1,1,0,0,1,1-1,1,1,0,0,1,1,1,1,1,0,0,1-1,1A1,1,0,0,1-15879,1108Zm-3,0a1,1,0,0,1,1-1,1,1,0,0,1,1,1,1,1,0,0,1-1,1A1,1,0,0,1-15882,1108Zm-3,0a1,1,0,0,1,1-1,1,1,0,0,1,1,1,1,1,0,0,1-1,1A1,1,0,0,1-15885,1108Zm-3,0a1,1,0,0,1,1-1,1,1,0,0,1,1,1,1,1,0,0,1-1,1A1,1,0,0,1-15888,1108Z" transform="translate(17040 -874)" fill="#2eceae"/>
    </g>
  </g>
</svg>
