<svg xmlns="http://www.w3.org/2000/svg" width="24.001" height="24.003" viewBox="0 0 24.001 24.003">
  <g id="padding_bottom" transform="translate(-1140 -353.998)">
    <g id="padding_bottom-2" data-name="padding_bottom" transform="translate(2314 608.001) rotate(180)">
      <path id="Union_8" data-name="Union 8" d="M-16055,1143h-1v-24h1v23h22v-23h1v24Z" transform="translate(17206 -889)" fill="#d8dfe5"/>
      <rect id="Rectangle_115" data-name="Rectangle 115" width="24" height="2" transform="translate(1150 230)" fill="#2eceae"/>
      <path id="Union_6" data-name="Union 6" d="M-15870,1108a1,1,0,0,1,1-1,1,1,0,0,1,1,1,1,1,0,0,1-1,1A1,1,0,0,1-15870,1108Zm-3,0a1,1,0,0,1,1-1,1,1,0,0,1,1,1,1,1,0,0,1-1,1A1,1,0,0,1-15873,1108Zm-3,0a1,1,0,0,1,1-1,1,1,0,0,1,1,1,1,1,0,0,1-1,1A1,1,0,0,1-15876,1108Zm-3,0a1,1,0,0,1,1-1,1,1,0,0,1,1,1,1,1,0,0,1-1,1A1,1,0,0,1-15879,1108Zm-3,0a1,1,0,0,1,1-1,1,1,0,0,1,1,1,1,1,0,0,1-1,1A1,1,0,0,1-15882,1108Zm-3,0a1,1,0,0,1,1-1,1,1,0,0,1,1,1,1,1,0,0,1-1,1A1,1,0,0,1-15885,1108Zm-3,0a1,1,0,0,1,1-1,1,1,0,0,1,1,1,1,1,0,0,1-1,1A1,1,0,0,1-15888,1108Z" transform="translate(17040 -874)" fill="#2eceae"/>
    </g>
  </g>
</svg>
