<svg xmlns="http://www.w3.org/2000/svg" width="24.001" height="24" viewBox="0 0 24.001 24">
  <g id="padding_top" transform="translate(-1139.999 -354)">
    <path id="Union_9" data-name="Union 9" d="M-15885,1267h-1v-24h1v23h22v-23h1v24Z" transform="translate(17026 -889)" fill="#d8dfe5"/>
    <rect id="Rectangle_115" data-name="Rectangle 115" width="24" height="2" transform="translate(1140 354)" fill="#2eceae"/>
    <path id="Union_6" data-name="Union 6" d="M-15870,1108a1,1,0,0,1,1-1,1,1,0,0,1,1,1,1,1,0,0,1-1,1A1,1,0,0,1-15870,1108Zm-3,0a1,1,0,0,1,1-1,1,1,0,0,1,1,1,1,1,0,0,1-1,1A1,1,0,0,1-15873,1108Zm-3,0a1,1,0,0,1,1-1,1,1,0,0,1,1,1,1,1,0,0,1-1,1A1,1,0,0,1-15876,1108Zm-3,0a1,1,0,0,1,1-1,1,1,0,0,1,1,1,1,1,0,0,1-1,1A1,1,0,0,1-15879,1108Zm-3,0a1,1,0,0,1,1-1,1,1,0,0,1,1,1,1,1,0,0,1-1,1A1,1,0,0,1-15882,1108Zm-3,0a1,1,0,0,1,1-1,1,1,0,0,1,1,1,1,1,0,0,1-1,1A1,1,0,0,1-15885,1108Zm-3,0a1,1,0,0,1,1-1,1,1,0,0,1,1,1,1,1,0,0,1-1,1A1,1,0,0,1-15888,1108Z" transform="translate(17030 -750)" fill="#2eceae"/>
  </g>
</svg>
