<svg xmlns="http://www.w3.org/2000/svg" width="28" height="28" viewBox="0 0 28 28">
  <g id="preview_close" transform="translate(-1866 -163)">
    <g id="safearea" transform="translate(1868 165)" fill="#fff" stroke="#2e3131" stroke-width="2">
      <rect width="24" height="24" rx="12" stroke="none"/>
      <rect x="-1" y="-1" width="26" height="26" rx="13" fill="none"/>
    </g>
    <g id="icon" transform="translate(588.116 -1153.068) rotate(45)">
      <path id="Union_4" data-name="Union 4" d="M-9998-1218v-3h-3a1,1,0,0,1-1-1,1,1,0,0,1,1-1h3v-3a1,1,0,0,1,1-1,1,1,0,0,1,1,1v3h3a1,1,0,0,1,1,1,1,1,0,0,1-1,1h-3v3a1,1,0,0,1-1,1A1,1,0,0,1-9998-1218Z" transform="translate(11851 1249)" fill="#2e3131"/>
    </g>
  </g>
</svg>
