<svg id="Group_33" data-name="Group 33" xmlns="http://www.w3.org/2000/svg" width="24" height="24" viewBox="0 0 24 24">
  <rect id="safe_area" data-name="safe area" width="24" height="24" fill="#fff" opacity="0"/>
  <path id="Subtraction_4" data-name="Subtraction 4" d="M12,16H10V14h2a2,2,0,0,0,2-2V10h2v2A4,4,0,0,1,12,16ZM6,16H4a4.005,4.005,0,0,1-4-4V10H2v2a2,2,0,0,0,2,2H6v2ZM2,6H0V4A4,4,0,0,1,4,0H6V2H4A2,2,0,0,0,2,4V6ZM16,6H14V4a2,2,0,0,0-2-2H10V0h2a4,4,0,0,1,4,4V6Z" transform="translate(3.998 3.998)" fill="#8aa1b1"/>
</svg>
