<svg xmlns="http://www.w3.org/2000/svg" width="36" height="36" viewBox="0 0 36 36">
    <g id="settings" transform="translate(-1468 -17)">
        <rect id="safe_area" data-name="safe area" width="36" height="36" transform="translate(1468 17)" fill="#f2f1ef" opacity="0"/>
        <g id="icon">
            <path id="Path_26" data-name="Path 26" d="M16.767,6.575H15.493c-.041-.123-.123-.288-.164-.411l.9-.9A1.183,1.183,0,0,0,16.6,4.4a1.119,1.119,0,0,0-.37-.863L14.507,1.808a1.253,1.253,0,0,0-.863-.37,1.183,1.183,0,0,0-.863.37l-.9.9c-.123-.041-.288-.123-.411-.164V1.233A1.211,1.211,0,0,0,10.233,0H7.767A1.211,1.211,0,0,0,6.534,1.233V2.507c-.123.041-.288.123-.411.164l-.9-.9a1.253,1.253,0,0,0-.863-.37,1.183,1.183,0,0,0-.863.37L1.767,3.493a1.183,1.183,0,0,0-.37.863,1.119,1.119,0,0,0,.37.863l.9.9c-.041.123-.123.288-.164.411H1.233A1.211,1.211,0,0,0,0,7.767v2.466a1.211,1.211,0,0,0,1.233,1.233H2.507c.041.123.123.288.164.411l-.9.9a1.183,1.183,0,0,0-.37.863,1.119,1.119,0,0,0,.37.863l1.726,1.726a1.253,1.253,0,0,0,.863.37,1.183,1.183,0,0,0,.863-.37l.9-.9c.123.041.288.123.411.164v1.274A1.211,1.211,0,0,0,7.767,18h2.466a1.211,1.211,0,0,0,1.233-1.233V15.493c.123-.041.288-.123.411-.164l.9.9a1.253,1.253,0,0,0,.863.37,1.183,1.183,0,0,0,.863-.37l1.726-1.726a1.183,1.183,0,0,0,.37-.863,1.119,1.119,0,0,0-.37-.863l-.9-.863c.041-.123.123-.288.164-.411h1.274A1.211,1.211,0,0,0,18,10.274V7.808A1.211,1.211,0,0,0,16.767,6.575ZM9,12.288A3.288,3.288,0,1,1,12.288,9,3.3,3.3,0,0,1,9,12.288Z" transform="translate(1477 26)" fill="#fff"/>
        </g>
    </g>
</svg>