<svg xmlns="http://www.w3.org/2000/svg" xmlns:xlink="http://www.w3.org/1999/xlink" viewBox="0 0 36 36">
  <defs>
    <style>
      .cls-1 {
        fill: #f2f1ef;
        opacity: 0;
      }

      .cls-2 {
        fill: url(#linear-gradient);
      }
    </style>
    <linearGradient id="linear-gradient" x1="1" y1="0.5" x2="0" y2="0.5" gradientUnits="objectBoundingBox">
      <stop offset="0" stop-color="#0074e9"/>
      <stop offset="1" stop-color="#4d05e8"/>
    </linearGradient>
  </defs>
  <g id="statistics" transform="translate(-40 -162)">
    <rect id="safe_area" data-name="safe area" class="cls-1" width="36" height="36" transform="translate(40 162)"/>
    <g id="icon">
      <path id="Path_19" data-name="Path 19" class="cls-2" d="M17.778,0H2.222A2.229,2.229,0,0,0,0,2.222V17.778A2.229,2.229,0,0,0,2.222,20H17.778A2.229,2.229,0,0,0,20,17.778V2.222A2.229,2.229,0,0,0,17.778,0ZM6.667,15.556H4.444V7.778H6.667Zm4.444,0H8.889V4.444h2.222Zm4.444,0H13.333V11.111h2.222Z" transform="translate(48 170)"/>
    </g>
  </g>
</svg>
