<svg xmlns="http://www.w3.org/2000/svg" width="32" height="32" viewBox="0 0 32 32">
  <g id="tablet_default" transform="translate(-1105 -198)">
    <rect id="safearea" width="32" height="32" transform="translate(1105 198)" fill="#f2f1ef" opacity="0"/>
    <g id="icon" transform="translate(1077.459 206)">
      <path id="Path_43" data-name="Path 43" d="M49.1.534A1.751,1.751,0,0,0,47.814,0H38.359a1.751,1.751,0,0,0-1.284.534,1.751,1.751,0,0,0-.534,1.284V14.182A1.823,1.823,0,0,0,38.359,16h9.455a1.823,1.823,0,0,0,1.818-1.818V1.818A1.753,1.753,0,0,0,49.1.534ZM43.6,15.057a.713.713,0,1,1,.216-.511A.7.7,0,0,1,43.6,15.057Zm4.58-2.33a.368.368,0,0,1-.364.364H38.359A.369.369,0,0,1,38,12.727V1.818a.369.369,0,0,1,.364-.364h9.455a.369.369,0,0,1,.364.364Z" fill="#8aa1b1"/>
    </g>
  </g>
</svg>
