<svg xmlns="http://www.w3.org/2000/svg" xmlns:xlink="http://www.w3.org/1999/xlink" viewBox="0 0 36 36">
  <defs>
    <style>
      .cls-1 {
        fill: #f2f1ef;
        opacity: 0;
      }

      .cls-2 {
        fill: url(#linear-gradient);
      }
    </style>
    <linearGradient id="linear-gradient" x1="0.976" y1="0.5" x2="0" y2="0.5" gradientUnits="objectBoundingBox">
      <stop offset="0" stop-color="#0074e9"/>
      <stop offset="1" stop-color="#4d05e8"/>
    </linearGradient>
  </defs>
  <g id="translation" transform="translate(-40 -162)">
    <rect id="safe_area" data-name="safe area" class="cls-1" width="36" height="36" transform="translate(40 162)"/>
    <g id="icon" transform="translate(46 147.667)">
      <path id="Path_20" data-name="Path 20" class="cls-2" d="M12.952,35.6h0l-2.772-2.739.033-.033A19.117,19.117,0,0,0,14.262,25.7h3.2V23.515H9.821V21.333H7.638v2.182H0v2.171H12.188a17.234,17.234,0,0,1-3.459,5.849A17.207,17.207,0,0,1,6.209,27.88H4.026a19.163,19.163,0,0,0,3.252,4.976L1.729,38.339l1.544,1.544,5.456-5.456,3.394,3.394Z"/>
      <path id="Path_21" data-name="Path 21" class="cls-2" d="M241.759,192h-2.182l-4.91,13.094h2.182l1.228-3.274h5.183l1.228,3.274h2.182Zm-2.864,7.638,1.773-4.73,1.773,4.73Z" transform="translate(-222.663 -161.938)"/>
    </g>
  </g>
</svg>
