<svg xmlns="http://www.w3.org/2000/svg" xmlns:xlink="http://www.w3.org/1999/xlink" viewBox="0 0 36 36">
  <defs>
    <style>
      .cls-1 {
        fill: #f2f1ef;
        opacity: 0;
      }

      .cls-2 {
        fill: url(#linear-gradient);
      }
    </style>
    <linearGradient id="linear-gradient" x1="1" y1="1" x2="0" y2="1" gradientUnits="objectBoundingBox">
      <stop offset="0" stop-color="#0074e9"/>
      <stop offset="1" stop-color="#4d05e8"/>
    </linearGradient>
  </defs>
  <g id="users" transform="translate(-40 -162)">
    <rect id="safe_area" data-name="safe area" class="cls-1" width="36" height="36" transform="translate(40 162)"/>
    <g id="icon">
      <path id="Path_4" data-name="Path 4" class="cls-2" d="M66.254,57.142a4.653,4.653,0,1,0,4.382,4.646A4.524,4.524,0,0,0,66.254,57.142Z" transform="translate(-12.972 113.858)"/>
      <path id="Path_5" data-name="Path 5" class="cls-2" d="M291.4,71.321h-.03a3.635,3.635,0,0,0-2.667,1.206,4.149,4.149,0,0,0,.046,5.595,3.636,3.636,0,0,0,2.656,1.161h.03a3.635,3.635,0,0,0,2.667-1.206,4.079,4.079,0,0,0,1.062-2.806A3.882,3.882,0,0,0,291.4,71.321Z" transform="translate(-228.151 100.344)"/>
      <path id="Path_6" data-name="Path 6" class="cls-2" d="M274.732,257.358h-.364a6.552,6.552,0,0,0-4.408,1.7,8.459,8.459,0,0,1,3.3,6.276h8.045v-1.4A6.583,6.583,0,0,0,274.732,257.358Z" transform="translate(-211.303 -76.971)"/>
      <path id="Path_7" data-name="Path 7" class="cls-2" d="M14.55,292.936A7.062,7.062,0,0,0,7.5,286.318H7.064A7.063,7.063,0,0,0,0,293.382v.838H14.565v-.838Q14.565,293.157,14.55,292.936Z" transform="translate(46 -104.573)"/>
    </g>
  </g>
</svg>
